<svg aria-hidden="true" style="position:absolute;width:0;height:0" xmlns="http://www.w3.org/2000/svg" overflow="hidden">
    <defs>
        <symbol id="icon-mail" viewBox="0 0 32 32">
            <path  d="M16 0C7.161 0 0 7.164 0 16c0 8.839 7.161 16 16 16 8.835 0 16-7.161 16-16 0-8.836-7.165-16-16-16zm9.569 9.371l.023.004-8.929 8.931a.814.814 0 01-1.121-.003L6.609 9.371H25.57zm-19.584.598c0-.007.004-.011.004-.011l6.068 6.065-6.072 6.072V9.968zm.598 12.828c-.027 0-.052-.013-.079-.017l6.155-6.153 2.279 2.279c.308.311.724.48 1.165.48.437 0 .853-.169 1.161-.48l2.204-2.205 6.096 6.097H6.583zm19.585-.602l-6.096-6.096 6.096-6.096v12.192z"/>
        </symbol>
        <symbol id="icon-phone" viewBox="0 0 32 32">
            <path  opacity=".8" d="M16 0C7.164 0 0 7.164 0 16s7.164 16 16 16 16-7.164 16-16S24.836 0 16 0zm4.303 24.245c-2.12-.131-6.289-2.565-8.232-4.752-1.937-2.188-3.861-6.617-3.735-8.741 0 0 2.309-3.055 3.369-2.993 1.068.064 4.057 3.435 2.927 4.437-1.12.996-2.183.935-2.245 1.992-.06 1.06.935 2.188 1.927 3.311 1.003 1.128 1.997 2.247 3.06 2.307 1.06.067 1.125-.991 2.245-1.993 1.125-.997 4.12 2.379 4.055 3.439-.059 1.056-3.371 2.995-3.371 2.995z"/>
        </symbol>
        <symbol id="icon-direction1" viewBox="0 0 32 32">
            <path fill="none" stroke="var(--color2, #70cf29)" stroke-miterlimit="10" stroke-width=".372" d="M26.18 4.148A15.564 15.564 0 0016 .372C7.369.372.372 7.369.372 16c0 3.89 1.424 7.445 3.776 10.18"/>
            <path fill="none" stroke="var(--color3, #3fa9f5)" stroke-miterlimit="10" stroke-width=".372" d="M5.72 27.766A15.562 15.562 0 0016 31.628c8.631 0 15.628-6.997 15.628-15.628a15.56 15.56 0 00-3.862-10.279"/>
            <path fill="var(--color3, #3fa9f5)" d="M19.328 14.945c1.828 0 3.314-1.487 3.314-3.314s-1.487-3.315-3.314-3.315c-1.828 0-3.315 1.487-3.315 3.315s1.487 3.314 3.315 3.314zm0-5.885c1.417 0 2.57 1.153 2.57 2.57s-1.153 2.57-2.57 2.57c-1.418 0-2.571-1.153-2.571-2.57s1.154-2.57 2.571-2.57zM19.349 16.285c-3.126 0-5.582 2.543-5.582 5.668v.372H24.93v-.372c0-3.126-2.455-5.668-5.581-5.668zm-4.931 5.296c.191-2.543 2.32-4.552 4.911-4.552s4.72 2.01 4.91 4.552h-9.821zM11.275 16.41c1.493 0 2.708-1.215 2.708-2.708s-1.215-2.708-2.708-2.708c-1.494 0-2.709 1.215-2.709 2.708s1.215 2.708 2.709 2.708zm0-4.672c1.083 0 1.964.881 1.964 1.964s-.881 1.964-1.964 1.964c-1.084 0-1.965-.881-1.965-1.964s.881-1.964 1.965-1.964zM6.698 21.954v.372h5.581v-.744H7.458c.178-2.006 1.78-3.528 3.795-3.528.761 0 1.39.153 1.923.467l.378-.641c-.65-.384-1.403-.57-2.301-.57-2.555 0-4.556 2.04-4.556 4.644z"/>
        </symbol>
        <symbol id="icon-direction8" viewBox="0 0 32 32">
            <path fill="none" stroke="var(--color2, #70cf29)" stroke-miterlimit="10" stroke-width=".372" d="M26.18 4.148A15.558 15.558 0 0016 .372C7.369.372.372 7.369.372 16c0 3.89 1.424 7.446 3.776 10.18"/>
            <path fill="none" stroke="var(--color3, #3fa9f5)" stroke-miterlimit="10" stroke-width=".372" d="M5.72 27.766A15.562 15.562 0 0016 31.628c8.631 0 15.628-6.997 15.628-15.628 0-3.937-1.459-7.532-3.862-10.28"/>
            <path fill="var(--color3, #3fa9f5)" d="M14.838 14.54c1.901 0 3.448-1.546 3.448-3.447s-1.546-3.447-3.448-3.447c-1.901 0-3.448 1.546-3.448 3.447s1.547 3.447 3.448 3.447zm0-6.15c1.491 0 2.704 1.213 2.704 2.703s-1.213 2.703-2.704 2.703-2.704-1.213-2.704-2.703a2.707 2.707 0 012.704-2.703zM16 21.581H9.686c.179-2.765 2.347-4.879 5.082-4.879 1.011 0 1.822.201 2.551.631l.378-.641c-.849-.501-1.779-.734-2.929-.734-3.274 0-5.838 2.634-5.838 5.996v.372H16v-.744zM25.201 24.565l-2.151-2.63c.248-.434.391-.935.391-1.469 0-1.641-1.335-2.977-2.977-2.977s-2.977 1.335-2.977 2.977c0 .535.144 1.036.391 1.469l-2.151 2.63c-.092.112-.11.267-.047.397s.184.211.34.21l1.458-.021.518 1.353a.372.372 0 00.324.238l.023.001a.375.375 0 00.329-.197l1.654-3.11c.045.002.09.007.137.007s.091-.005.137-.007l1.654 3.11a.373.373 0 00.329.197l.023-.001a.372.372 0 00.324-.238l.518-1.353 1.458.021c.158.003.278-.08.34-.21s.044-.285-.048-.397zm-6.8.91l-.319-.832a.35.35 0 00-.353-.239l-.918.013 1.53-1.87c.334.342.751.603 1.217.753l-1.157 2.175zm-.168-5.01c0-1.231 1.001-2.233 2.233-2.233s2.233 1.001 2.233 2.233c0 1.231-1.001 2.233-2.233 2.233s-2.233-1.001-2.233-2.233zm4.968 3.938a.37.37 0 00-.353.239l-.319.832-1.156-2.175c.466-.15.882-.411 1.217-.753l1.53 1.87-.919-.013z"/>
        </symbol>
        <symbol id="icon-direction7" viewBox="0 0 32 32">
            <path fill="none" stroke="var(--color2, #70cf29)" stroke-miterlimit="10" stroke-width=".372" d="M26.18 4.148A15.558 15.558 0 0016 .372C7.369.372.372 7.369.372 16c0 3.89 1.424 7.446 3.776 10.18"/>
            <path fill="none" stroke="var(--color3, #3fa9f5)" stroke-miterlimit="10" stroke-width=".372" d="M5.72 27.766A15.562 15.562 0 0016 31.628c8.631 0 15.628-6.997 15.628-15.628 0-3.937-1.459-7.532-3.862-10.28"/>
            <path fill="var(--color3, #3fa9f5)" d="M22.326 11.535h-3.349v-.744c0-1.026-.835-1.86-1.86-1.86h-2.233c-1.026 0-1.86.835-1.86 1.86v.744H9.675c-1.026 0-1.86.835-1.86 1.86v7.07c0 1.026.835 1.86 1.86 1.86h12.651c1.026 0 1.86-.835 1.86-1.86v-7.07c0-1.026-.835-1.86-1.86-1.86zm-8.559-.744c0-.615.501-1.116 1.116-1.116h2.233c.615 0 1.116.501 1.116 1.116v.744h-4.465v-.744zm9.675 9.674c0 .615-.501 1.116-1.116 1.116H9.675a1.118 1.118 0 01-1.116-1.116v-7.07c0-.615.501-1.116 1.116-1.116h12.651c.615 0 1.116.501 1.116 1.116v7.07z"/>
            <path fill="var(--color3, #3fa9f5)" d="M13.023 17.488h-.744v2.977h.744v-2.977zM15.256 16.372h-.744v4.093h.744v-4.093zM17.488 15.256h-.744v5.209h.744v-5.209zM19.721 14.14h-.744v6.326h.744V14.14z"/>
        </symbol>
        <symbol id="icon-direction6" viewBox="0 0 32 32">
            <path fill="none" stroke="var(--color2, #70cf29)" stroke-miterlimit="10" stroke-width=".372" d="M26.18 4.148A15.558 15.558 0 0016 .372C7.369.372.372 7.369.372 16c0 3.89 1.424 7.446 3.776 10.18"/>
            <path fill="none" stroke="var(--color3, #3fa9f5)" stroke-miterlimit="10" stroke-width=".372" d="M5.72 27.766A15.562 15.562 0 0016 31.628c8.631 0 15.628-6.997 15.628-15.628 0-3.937-1.459-7.532-3.862-10.28"/>
            <path fill="var(--color3, #3fa9f5)" d="M23.814 10.046a2.608 2.608 0 00-2.605-2.605H10.418a2.608 2.608 0 00-2.605 2.605v12.651h2.233v1.488h.744v-1.488h10.046v1.488h.744v-1.488h2.233V10.046zm-5.801 6.326c-.178-1.054-1.095-1.86-2.199-1.86s-2.021.806-2.199 1.86H8.558v-5.954H23.07v5.954h-5.057zm-.763 0h-2.871c.166-.64.744-1.116 1.436-1.116s1.269.476 1.436 1.116zm-6.831-8.186H21.21c.899 0 1.65.64 1.823 1.488H8.597a1.863 1.863 0 011.823-1.488zM8.558 21.953v-4.837H23.07v4.837H8.558z"/>
            <path fill="var(--color3, #3fa9f5)" d="M11.349 17.86c-.923 0-1.674.751-1.674 1.674s.751 1.674 1.674 1.674c.923 0 1.674-.751 1.674-1.674s-.751-1.674-1.674-1.674zm0 2.605a.93.93 0 11.002-1.862.93.93 0 01-.002 1.862zM20.279 17.86c-.923 0-1.674.751-1.674 1.674s.751 1.674 1.674 1.674c.923 0 1.674-.751 1.674-1.674s-.751-1.674-1.674-1.674zm0 2.605a.93.93 0 11.002-1.862.93.93 0 01-.002 1.862z"/>
        </symbol>
        <symbol id="icon-direction5" viewBox="0 0 32 32">
            <path fill="none" stroke="var(--color2, #70cf29)" stroke-miterlimit="10" stroke-width=".372" d="M26.18 4.148A15.558 15.558 0 0016 .372C7.369.372.372 7.369.372 16c0 3.89 1.424 7.446 3.776 10.18"/>
            <path fill="none" stroke="var(--color3, #3fa9f5)" stroke-miterlimit="10" stroke-width=".372" d="M5.72 27.766A15.562 15.562 0 0016 31.628c8.631 0 15.628-6.997 15.628-15.628 0-3.937-1.459-7.532-3.862-10.28"/>
            <path fill="var(--color3, #3fa9f5)" d="M19.642 16.098c.395.303.843.646 1.567.646.642 0 1.088-.329 1.483-.618.364-.267.678-.498 1.122-.498.434 0 .733.224 1.079.484.396.297.844.633 1.526.633v-.744c-.434 0-.733-.224-1.079-.484-.396-.297-.844-.633-1.526-.633-.688 0-1.153.341-1.562.643-.346.254-.645.474-1.042.474-.471 0-.769-.228-1.114-.493-.306-.234-.647-.491-1.118-.585v-2.309a1.863 1.863 0 001.488-1.822c0-1.026-.835-1.86-1.86-1.86s-1.86.835-1.86 1.86c0 .898.64 1.65 1.488 1.822v2.309c-.481.094-.835.355-1.154.594-.346.259-.645.484-1.079.484s-.733-.224-1.079-.484c-.396-.297-.844-.633-1.526-.633s-1.131.336-1.526.633c-.346.259-.646.484-1.079.484-.437 0-.741-.226-1.092-.488-.396-.295-.845-.628-1.516-.628-.696 0-1.149.34-1.544.64-.337.255-.684.476-1.056.476v.744c.744 0 1.119-.333 1.506-.628.346-.262.653-.489 1.098-.489.424 0 .723.223 1.069.481.399.298.852.635 1.535.635.682 0 1.13-.336 1.526-.633.346-.259.645-.484 1.079-.484s.733.224 1.079.484c.396.297.844.633 1.526.633s1.13-.336 1.526-.633c.237-.178.455-.333.707-.418v1.833c-.481.094-.835.355-1.154.594-.346.259-.645.484-1.079.484s-.733-.224-1.079-.484c-.396-.297-.844-.633-1.526-.633s-1.131.336-1.526.633c-.346.259-.646.484-1.079.484-.437 0-.741-.226-1.092-.488-.396-.295-.845-.628-1.516-.628-.696 0-1.149.34-1.544.64-.337.255-.684.476-1.056.476v.744c.744 0 1.119-.333 1.506-.628.346-.262.653-.489 1.098-.489.424 0 .723.223 1.069.481.399.298.852.635 1.535.635.682 0 1.13-.336 1.526-.633.346-.259.645-.484 1.079-.484s.733.224 1.079.484c.396.297.844.633 1.526.633s1.13-.336 1.526-.633c.237-.178.455-.333.707-.418v4.771c0 1.436-1.168 2.605-2.605 2.605s-2.605-1.169-2.605-2.605v-.962l1.597 1.597.526-.526-2.868-2.868v2.759c0 1.847 1.502 3.349 3.349 3.349s3.349-1.502 3.349-3.349v-4.77c.234.08.435.226.666.403.395.303.843.646 1.567.646.642 0 1.088-.329 1.483-.618.364-.267.678-.498 1.122-.498.434 0 .733.224 1.079.484.396.297.844.633 1.526.633v-.744c-.434 0-.733-.224-1.079-.484-.396-.297-.844-.633-1.526-.633-.688 0-1.153.341-1.562.643-.346.254-.645.474-1.042.474-.471 0-.769-.228-1.114-.493-.306-.234-.647-.491-1.118-.585v-1.832c.234.08.435.226.666.403zm-2.154-5.307c0-.615.501-1.116 1.116-1.116s1.116.501 1.116 1.116c0 .615-.501 1.116-1.116 1.116s-1.116-.501-1.116-1.116zM18.977 5.954h-.744v2.977h.744V5.954z"/>
        </symbol>
        <symbol id="icon-direction4" viewBox="0 0 32 32">
            <path fill="none" stroke="var(--color2, #70cf29)" stroke-miterlimit="10" stroke-width=".372" d="M26.18 4.148A15.564 15.564 0 0016 .372C7.369.372.372 7.369.372 16c0 3.89 1.424 7.445 3.776 10.18"/>
            <path fill="none" stroke="var(--color3, #3fa9f5)" stroke-miterlimit="10" stroke-width=".372" d="M5.72 27.766A15.562 15.562 0 0016 31.628c8.631 0 15.628-6.997 15.628-15.628a15.56 15.56 0 00-3.862-10.279"/>
            <path fill="var(--color3, #3fa9f5)" d="M24.34 15.256l-1.86-1.86h-1.116l-1.86-1.86h-6.108V7.443h-2.233v4.093H8.93v1.86H7.814v1.86H5.828l2.08 7.07h15.783l2.911-7.07H24.34zm-12.433-7.07h.744v3.349h-.744V8.186zm-2.233 4.093h9.52l1.116 1.116H9.673v-1.116zM8.558 14.14h13.613l1.116 1.116H8.557V14.14zm14.635 7.441H8.465L6.824 16h18.668l-2.298 5.581z"/>
            <path fill="var(--color3, #3fa9f5)" d="M11.163 17.302c-.821 0-1.488.668-1.488 1.488s.668 1.488 1.488 1.488c.821 0 1.488-.668 1.488-1.488s-.668-1.488-1.488-1.488zm0 2.233a.745.745 0 010-1.488.745.745 0 010 1.488zM16 17.302c-.821 0-1.488.668-1.488 1.488s.668 1.488 1.488 1.488c.821 0 1.488-.668 1.488-1.488S16.82 17.302 16 17.302zm0 2.233a.745.745 0 010-1.488.745.745 0 010 1.488zM20.837 17.302c-.821 0-1.488.668-1.488 1.488s.668 1.488 1.488 1.488c.821 0 1.488-.668 1.488-1.488s-.668-1.488-1.488-1.488zm0 2.233a.745.745 0 010-1.488.745.745 0 010 1.488z"/>
        </symbol>
        <symbol id="icon-direction3" viewBox="0 0 32 32">
            <path fill="none" stroke="var(--color2, #70cf29)" stroke-miterlimit="10" stroke-width=".372" d="M26.18 4.148A15.564 15.564 0 0016 .372C7.369.372.372 7.369.372 16c0 3.89 1.424 7.445 3.776 10.18"/>
            <path fill="none" stroke="var(--color3, #3fa9f5)" stroke-miterlimit="10" stroke-width=".372" d="M5.72 27.766A15.562 15.562 0 0016 31.628c8.631 0 15.628-6.997 15.628-15.628a15.56 15.56 0 00-3.862-10.279"/>
            <path fill="var(--color3, #3fa9f5)" d="M23.245 8.93H9.127c-.898 0-1.685.859-1.685 1.838v9.193c0 .908.74 1.62 1.685 1.62h.919v3.826l4.151-3.826h9.047c.945 0 1.685-.711 1.685-1.62v-9.193c0-.979-.787-1.838-1.685-1.838zm.941 11.032c0 .499-.404.876-.941.876h-9.338l-3.116 2.872v-2.872H9.127c-.537 0-.941-.377-.941-.876v-9.193c0-.552.466-1.094.941-1.094h14.118c.475 0 .941.542.941 1.094v9.193z"/>
            <path fill="var(--color3, #3fa9f5)" d="M15.963 11.303c-2.229 0-4.043 1.807-4.043 4.029s1.814 4.029 4.043 4.029 4.042-1.807 4.042-4.029-1.813-4.029-4.042-4.029zm3.264 3.581h-1.545c-.045-.991-.237-1.951-.568-2.627a3.293 3.293 0 012.113 2.627zm-3.264 3.677c-.314 0-.911-1.034-.979-2.933h1.957c-.068 1.9-.665 2.933-.978 2.933zm-.975-3.677c.086-1.835.667-2.831.975-2.831s.889.996.974 2.831h-1.949zm-.175-2.627c-.331.675-.523 1.635-.569 2.627h-1.545a3.292 3.292 0 012.114-2.627zm-2.134 3.371h1.561c.038 1.059.243 2.089.605 2.79a3.293 3.293 0 01-2.166-2.79zm4.401 2.79c.362-.7.567-1.731.605-2.79h1.561a3.289 3.289 0 01-2.166 2.79z"/>
        </symbol>
        <symbol id="icon-direction2" viewBox="0 0 32 32">
            <path fill="none" stroke="var(--color2, #70cf29)" stroke-miterlimit="10" stroke-width=".372" d="M26.18 4.148A15.564 15.564 0 0016 .372C7.369.372.372 7.369.372 16c0 3.89 1.424 7.445 3.776 10.18"/>
            <path fill="none" stroke="var(--color3, #3fa9f5)" stroke-miterlimit="10" stroke-width=".372" d="M5.72 27.766A15.562 15.562 0 0016 31.628c8.631 0 15.628-6.997 15.628-15.628a15.56 15.56 0 00-3.862-10.279"/>
            <path fill="var(--color3, #3fa9f5)" d="M16.372 14.14h4.458l3.261-2.893-3.268-2.688h-4.45V7.443h-.744v1.116H9.303v5.581h6.326V16h-3.773l-3.261 2.886 3.268 2.696h3.766v2.605h-3.721v.744h8.558v-.744h-4.093v-2.605h6.698v-5.581h-6.698v-1.86zm-6.325-4.838h10.509l2.39 1.965-2.398 2.128H10.047V9.302zm12.279 7.442v4.093H12.13l-2.39-1.972 2.397-2.121h10.189z"/>
        </symbol>
        <symbol id="icon-design" viewBox="0 0 77 32">
            <path d="M67.878 31.907h1.446v-4.829l4.429 4.327c0.119 0.093 0.244 0.185 0.368 0.272 0.103 0.070 0.205 0.132 0.311 0.189 0.092 0.042 0.191 0.086 0.292 0.103 0.105 0.022 0.211 0.032 0.316 0.032 0.215 0 0.432-0.036 0.634-0.132 0.179-0.087 0.335-0.209 0.465-0.362 0.134-0.159 0.227-0.343 0.294-0.537 0.067-0.215 0.1-0.441 0.1-0.66v-4.535h-1.449v4.816l-4.438-4.367c-0.345-0.337-0.767-0.593-1.264-0.593-0.193 0-0.381 0.042-0.56 0.119-0.173 0.079-0.337 0.185-0.486 0.314-0.135 0.129-0.25 0.285-0.333 0.455-0.086 0.173-0.128 0.356-0.128 0.547v4.841h0.001zM46.182 21.6h5.075v-9.103l16.743 8.378c1.807 0.897 4.543 1.111 6.301 0 1.719-1.082 2.233-2.957 2.233-4.886v-15.807h-59.284c-1.001 0-1.984 0.153-2.935 0.449-0.929 0.292-1.795 0.721-2.572 1.309-0.756 0.569-1.367 1.267-1.836 2.079-0.492 0.851-0.703 1.788-0.703 2.761 0 0.934 0.192 1.823 0.604 2.657 0.403 0.807 0.935 1.514 1.619 2.105 0.688 0.605 1.472 1.059 2.33 1.375 0.88 0.332 1.798 0.495 2.742 0.495h20.954v3.168h-31.776v-16.58h-5.677v21.603l35.455-0.003c0.924 0 1.823-0.167 2.692-0.492 0.839-0.319 1.62-0.772 2.303-1.363 0.668-0.579 1.201-1.271 1.6-2.064 0.417-0.822 0.602-1.708 0.602-2.623 0-0.918-0.185-1.789-0.563-2.623-0.369-0.813-0.876-1.537-1.527-2.148-0.668-0.634-1.45-1.108-2.303-1.449-0.915-0.369-1.881-0.534-2.87-0.534h-20.653v-3.233h56.695v11.673l-16.922-8.428c-3.923-1.952-8.327-1.249-8.327 3.916v9.367zM7.281 30.506h-5.785v-3.321h5.785v3.321zM0.029 31.907h6.655c0.272 0 0.535-0.045 0.794-0.141 0.244-0.092 0.471-0.223 0.668-0.396 0.193-0.17 0.346-0.372 0.463-0.605 0.116-0.239 0.17-0.497 0.17-0.762v-2.346c0-0.271-0.051-0.529-0.167-0.777-0.113-0.227-0.262-0.432-0.455-0.596-0.193-0.176-0.417-0.304-0.656-0.39-0.259-0.099-0.521-0.145-0.793-0.145h-6.679v6.159h0.001zM23.556 31.935v-1.521h-7.251v-0.842h7.251v-1.476h-7.251v-0.896h7.251v-1.469h-6.541c-0.288 0-0.58 0.042-0.854 0.134-0.25 0.089-0.48 0.212-0.682 0.384-0.198 0.17-0.352 0.378-0.46 0.611-0.119 0.259-0.164 0.54-0.164 0.823v2.291c0 0.275 0.051 0.547 0.17 0.791 0.122 0.234 0.278 0.444 0.477 0.618 0.199 0.177 0.432 0.308 0.688 0.406 0.259 0.092 0.528 0.147 0.807 0.147h6.559zM38.742 27.193v-1.392h-6.819c-0.279 0-0.563 0.042-0.835 0.131-0.262 0.080-0.512 0.202-0.733 0.369-0.212 0.161-0.388 0.359-0.522 0.593-0.138 0.241-0.199 0.506-0.199 0.787 0 0.262 0.054 0.519 0.173 0.756 0.111 0.227 0.266 0.435 0.46 0.596 0.196 0.176 0.417 0.304 0.662 0.394 0.253 0.093 0.516 0.143 0.784 0.143h5.98v0.909h-7.66v1.425h7.085c0.265 0 0.519-0.045 0.764-0.14 0.244-0.092 0.465-0.22 0.657-0.39 0.195-0.164 0.342-0.364 0.457-0.586 0.121-0.237 0.17-0.486 0.17-0.749 0-0.262-0.049-0.509-0.16-0.748-0.099-0.23-0.25-0.438-0.432-0.615-0.193-0.177-0.417-0.311-0.659-0.407-0.259-0.108-0.534-0.153-0.816-0.153h-5.898v-0.927l7.542 0.001zM46.863 25.747h-1.617v6.211h1.617v-6.211zM57.472 28.068v1.478h2.841v0.868h-5.935v-3.229h7.424v-1.437h-6.636c-0.567 0-1.187 0.096-1.654 0.448-0.403 0.308-0.579 0.729-0.579 1.229v2.524c0 0.288 0.054 0.573 0.185 0.831 0.128 0.236 0.294 0.435 0.505 0.601 0.217 0.167 0.461 0.291 0.72 0.371 0.273 0.089 0.56 0.131 0.849 0.131h4.253c0.292 0 0.579-0.035 0.867-0.113 0.268-0.071 0.516-0.185 0.748-0.346 0.215-0.156 0.394-0.352 0.525-0.588 0.14-0.253 0.196-0.538 0.196-0.831v-1.933l-4.31-0.003z"></path>
        </symbol>
    </defs>
</svg>